<svg xmlns="http://www.w3.org/2000/svg" version="1.1" xmlns:xlink="http://www.w3.org/1999/xlink" width="512" height="512" x="0" y="0" viewBox="0 0 512 512" style="enable-background:new 0 0 512 512" xml:space="preserve" class=""><g><path d="M256 347.229c-24.81 0-44.994 20.184-44.994 44.994S231.19 437.218 256 437.218s44.994-20.184 44.994-44.994S280.81 347.229 256 347.229zm0 59.992c-8.27 0-14.998-6.728-14.998-14.998s6.728-14.998 14.998-14.998 14.998 6.728 14.998 14.998-6.728 14.998-14.998 14.998z" fill="#2a81a9" opacity="1" data-original="#000000" class=""></path><path d="M256 137.256c-24.81 0-44.994 20.184-44.994 44.994v119.985c0 24.81 20.184 44.994 44.994 44.994s44.994-20.184 44.994-44.994V182.25c0-24.81-20.184-44.994-44.994-44.994zm14.998 164.979c0 8.27-6.728 14.998-14.998 14.998s-14.998-6.728-14.998-14.998V182.25c0-8.27 6.728-14.998 14.998-14.998s14.998 6.728 14.998 14.998v119.985z" fill="#2a81a9" opacity="1" data-original="#000000" class=""></path><path d="M501.342 383.895 320.528 51.5c-29.084-48.984-99.896-48.903-128.946-.027L10.635 383.934c-29.687 49.997 6.288 113.277 64.48 113.277h361.77c58.117 0 94.215-63.201 64.457-113.316zm-64.457 83.319H75.115c-34.956 0-56.469-38.018-38.714-67.923L217.333 66.857c.009-.014.018-.028.025-.042 17.435-29.361 59.924-29.394 77.401.04l180.815 332.394c17.812 30-3.774 67.965-38.689 67.965z" fill="#2a81a9" opacity="1" data-original="#000000" class=""></path></g></svg>